GRF
version=1
nRows=8
nColumns=46
inDegrees=no
endheader
time	plate1_ground_force_vx	plate1_ground_force_vy	plate1_ground_force_vz	plate1_ground_force_px	plate1_ground_force_py	plate1_ground_force_pz	plate1_ground_torque_x	plate1_ground_torque_y	plate1_ground_torque_z	plate2_ground_force_vx	plate2_ground_force_vy	plate2_ground_force_vz	plate2_ground_force_px	plate2_ground_force_py	plate2_ground_force_pz	plate2_ground_torque_x	plate2_ground_torque_y	plate2_ground_torque_z	plate3_ground_force_vx	plate3_ground_force_vy	plate3_ground_force_vz	plate3_ground_force_px	plate3_ground_force_py	plate3_ground_force_pz	plate3_ground_torque_x	plate3_ground_torque_y	plate3_ground_torque_z	plate4_ground_force_vx	plate4_ground_force_vy	plate4_ground_force_vz	plate4_ground_force_px	plate4_ground_force_py	plate4_ground_force_pz	plate4_ground_torque_x	plate4_ground_torque_y	plate4_ground_torque_z	plate5_ground_force_vx	plate5_ground_force_vy	plate5_ground_force_vz	plate5_ground_force_px	plate5_ground_force_py	plate5_ground_force_pz	plate5_ground_torque_x	plate5_ground_torque_y	plate5_ground_torque_z
      0.59000000	    115.00827229	    546.23522397	    -21.32453127	     -0.83069010	      0.00000000	      0.25218120	      0.00000000	     -5.29225671	      0.00000000	    -25.60980620	    127.71030782	     -4.45554992	     -0.30233433	      0.00000000	      0.17523263	      0.00000000	      0.04464796	     -0.00000000	      0.00000000	      0.00000000	      0.00000000	      0.00000000	      0.00000000	      0.00000000	      0.00000000	      0.00000000	      0.00000000	      0.00000000	      0.00000000	      0.00000000	      0.00000000	      0.00000000	      0.00000000	      0.00000000	      0.00000000	      0.00000000	      0.00000000	      0.00000000	      0.00000000	      0.00000000	      0.00000000	      0.00000000	      0.00000000	      0.00000000	      0.00000000
      0.60000000	    116.68045467	    507.26966572	    -19.32522326	     -0.82968942	      0.00000000	      0.25299066	      0.00000000	     -5.28933527	      0.00000000	    -34.97233253	    167.44314155	     -5.05784682	     -0.29974227	      0.00000000	      0.17529109	      0.00000000	      0.07561770	     -0.00000000	      0.00000000	      0.00000000	      0.00000000	      0.00000000	      0.00000000	      0.00000000	      0.00000000	      0.00000000	      0.00000000	      0.00000000	      0.00000000	      0.00000000	      0.00000000	      0.00000000	      0.00000000	      0.00000000	      0.00000000	      0.00000000	      0.00000000	      0.00000000	      0.00000000	      0.00000000	      0.00000000	      0.00000000	      0.00000000	      0.00000000	      0.00000000
      0.61000000	    115.16103299	    460.13574690	    -16.98541774	     -0.82834822	      0.00000000	      0.25459729	      0.00000000	     -5.16777867	      0.00000000	    -45.26597765	    209.11538779	     -5.07059010	     -0.29650018	      0.00000000	      0.17529989	      0.00000000	      0.11621927	     -0.00000000	      0.00000000	      0.00000000	      0.00000000	      0.00000000	      0.00000000	      0.00000000	      0.00000000	      0.00000000	      0.00000000	      0.00000000	      0.00000000	      0.00000000	      0.00000000	      0.00000000	      0.00000000	      0.00000000	      0.00000000	      0.00000000	      0.00000000	      0.00000000	      0.00000000	      0.00000000	      0.00000000	      0.00000000	      0.00000000	      0.00000000	      0.00000000
      0.62000000	    110.04392897	    405.88020114	    -14.43267329	     -0.82641957	      0.00000000	      0.25731742	      0.00000000	     -4.91352615	      0.00000000	    -55.93793300	    251.18557815	     -4.32271977	     -0.29264925	      0.00000000	      0.17524688	      0.00000000	      0.16476056	     -0.00000000	      0.00000000	      0.00000000	      0.00000000	      0.00000000	      0.00000000	      0.00000000	      0.00000000	      0.00000000	      0.00000000	      0.00000000	      0.00000000	      0.00000000	      0.00000000	      0.00000000	      0.00000000	      0.00000000	      0.00000000	      0.00000000	      0.00000000	      0.00000000	      0.00000000	      0.00000000	      0.00000000	      0.00000000	      0.00000000	      0.00000000	      0.00000000
      0.63000000	    101.25887660	    346.43673103	    -11.81579419	     -0.82369132	      0.00000000	      0.26137983	      0.00000000	     -4.52246336	      0.00000000	    -66.46042153	    292.91449547	     -2.79864056	     -0.28828318	      0.00000000	      0.17513837	      0.00000000	      0.21833841	      0.00000000	      0.00000000	      0.00000000	      0.00000000	      0.00000000	      0.00000000	      0.00000000	      0.00000000	      0.00000000	      0.00000000	      0.00000000	      0.00000000	      0.00000000	      0.00000000	      0.00000000	      0.00000000	      0.00000000	      0.00000000	      0.00000000	      0.00000000	      0.00000000	      0.00000000	      0.00000000	      0.00000000	      0.00000000	      0.00000000	      0.00000000	      0.00000000
      0.64000000	     89.21217164	    284.62013072	     -9.28576045	     -0.82010639	      0.00000000	      0.26677508	      0.00000000	     -4.00605527	      0.00000000	    -76.37184416	    334.18251720	     -0.65149065	     -0.28353791	      0.00000000	      0.17499986	      0.00000000	      0.27364444	      0.00000000	      0.00000000	      0.00000000	      0.00000000	      0.00000000	      0.00000000	      0.00000000	      0.00000000	      0.00000000	      0.00000000	      0.00000000	      0.00000000	      0.00000000	      0.00000000	      0.00000000	      0.00000000	      0.00000000	      0.00000000	      0.00000000	      0.00000000	      0.00000000	      0.00000000	      0.00000000	      0.00000000	      0.00000000	      0.00000000	      0.00000000	      0.00000000
      0.65000000	     74.82381515	    223.85281398	     -6.97661796	     -0.81585878	      0.00000000	      0.27314455	      0.00000000	     -3.39448172	      0.00000000	    -85.25487116	    374.95726730	      1.84535049	     -0.27858570	      0.00000000	      0.17486650	     -0.00000000	      0.32763241	      0.00000000	      0.00000000	      0.00000000	      0.00000000	      0.00000000	      0.00000000	      0.00000000	      0.00000000	      0.00000000	      0.00000000	      0.00000000	      0.00000000	      0.00000000	      0.00000000	      0.00000000	      0.00000000	      0.00000000	      0.00000000	      0.00000000	      0.00000000	      0.00000000	      0.00000000	      0.00000000	      0.00000000	      0.00000000	      0.00000000	      0.00000000	      0.00000000
      0.66000000	     59.41015119	    167.63758275	     -4.98917598	     -0.81138629	      0.00000000	      0.27980822	      0.00000000	     -2.73467637	      0.00000000	    -92.70076999	    414.76369999	      4.38528321	     -0.27362226	      0.00000000	      0.17476836	     -0.00000000	      0.37757779	      0.00000000	      0.00000000	      0.00000000	      0.00000000	      0.00000000	      0.00000000	      0.00000000	      0.00000000	      0.00000000	      0.00000000	      0.00000000	      0.00000000	      0.00000000	      0.00000000	      0.00000000	      0.00000000	      0.00000000	      0.00000000	      0.00000000	      0.00000000	      0.00000000	      0.00000000	      0.00000000	      0.00000000	      0.00000000	      0.00000000	      0.00000000	      0.00000000
